<?xml version="1.0" encoding="utf-8"?>
<!-- Generator: Adobe Illustrator 27.0.0, SVG Export Plug-In . SVG Version: 6.00 Build 0)  -->
<svg version="1.1"
	 id="Layer_1" xmlns:dc="http://purl.org/dc/elements/1.1/" xmlns:cc="http://creativecommons.org/ns#" xmlns:rdf="http://www.w3.org/1999/02/22-rdf-syntax-ns#" xmlns:inkscape="http://www.inkscape.org/namespaces/inkscape" xmlns:sodipodi="http://sodipodi.sourceforge.net/DTD/sodipodi-0.dtd" xmlns:svg="http://www.w3.org/2000/svg" inkscape:version="0.92.2 (5c3e80d, 2017-08-06)"
	 xmlns="http://www.w3.org/2000/svg" xmlns:xlink="http://www.w3.org/1999/xlink" x="0px" y="0px" viewBox="0 0 120 60"
	 style="enable-background:new 0 0 120 60;" xml:space="preserve">
<style type="text/css">
	.st0{fill:#555559;}
</style>
<sodipodi:namedview  bordercolor="#666666" borderopacity="1" gridtolerance="10" guidetolerance="10" id="namedview9" inkscape:current-layer="Layer_1" inkscape:cx="78.24959" inkscape:cy="25.146066" inkscape:pageopacity="0" inkscape:pageshadow="2" inkscape:window-height="1001" inkscape:window-maximized="1" inkscape:window-width="1920" inkscape:window-x="-9" inkscape:window-y="-9" inkscape:zoom="4.794184" objecttolerance="10" pagecolor="#ffffff" showgrid="false">
	</sodipodi:namedview>
<g id="g881" transform="translate(-1.0313211)">
	<g id="g874" transform="matrix(1.0813655,0,0,1.0813655,-63.131886,42.33966)">
		
			<path id="path6-8" inkscape:connector-curvature="0" sodipodi:nodetypes="sccccsssscccscsssccssssccsccccssccccscccccccsccccsssscccssssssssssssssssscscccccccccsccss" class="st0" d="
			M98.9-17.9H94v5.4l3.2,2.9v-5.3H99c1.1,0,1.6,0.5,1.6,1.4v4c0,0.8-0.5,1.4-1.6,1.4h-5v3.1h4.8c2.6,0,5-1.3,5-4.3v-4.3
			C103.9-16.6,101.5-17.9,98.9-17.9z M124.2-9.2v-4.5c0-1.6,2.9-2,3.8-0.4l2.7-1.1c-1.1-2.3-3-3-4.6-3c-2.6,0-5.2,1.5-5.2,4.4v4.5
			c0,2.9,2.6,4.4,5.1,4.4c1.6,0,3.6-0.8,4.7-2.9L127.9-9C127.2-7.2,124.2-7.6,124.2-9.2z M115.4-13c-1-0.2-1.7-0.6-1.7-1.2
			c0.1-1.5,2.4-1.6,3.7-0.1l2.1-1.6c-1.3-1.6-2.9-2.1-4.4-2.1c-2.4,0-4.7,1.3-4.7,3.9c0,2.5,1.9,3.8,4,4.1c1.1,0.1,2.2,0.6,2.2,1.3
			c-0.1,1.4-2.9,1.3-4.2-0.3l-2.1,1.9c1.2,1.6,2.9,2.3,4.4,2.3c2.4,0,5-1.4,5.1-3.9C120-11.8,117.7-12.6,115.4-13z M105.6-4.9h3.3
			v-13h-3.3V-4.9z M160.7-17.9h-4.8v5.4l3.2,2.9v-5.3h1.7c1.1,0,1.6,0.5,1.6,1.4v4c0,0.8-0.5,1.4-1.6,1.4h-5v3.1h4.9
			c2.6,0,5-1.3,5-4.3v-4.3C165.8-16.6,163.3-17.9,160.7-17.9z M137-18.1c-2.7,0-5.4,1.5-5.4,4.4v4.4c0,3,2.7,4.4,5.4,4.4
			c2.7,0,5.4-1.5,5.4-4.4v-4.4C142.4-16.6,139.7-18.1,137-18.1z M139.1-9.2c0,0.9-1.1,1.4-2.1,1.4c-1.1,0-2.1-0.5-2.1-1.4v-4.4
			c0-0.9,1-1.5,2-1.5c1.1,0,2.1,0.5,2.1,1.5L139.1-9.2z M154.1-13.6c-0.1-3-2.1-4.3-4.8-4.3h-5.2v13h3.3V-9h0.6l3,4.1h4.1l-3.5-4.4
			C153.1-9.9,154.1-11.2,154.1-13.6L154.1-13.6z M149.3-11.9h-1.9v-3h1.9C151.4-14.8,151.4-11.9,149.3-11.9z"/>
	</g>
	<path class="st0" d="M9.4,35.4c0.6,0.7,1.2,1.3,1.9,1.8c1.1,0.8,2.3,1.5,3.6,1.9c0.1,0,0.1,0.1,0,0.1c-0.3,0.4-0.6,0.9-1,1.3
		c0,0.1-0.1,0.1-0.2,0.1c-0.7,0-1.5-0.1-2.2-0.3c-1.5-0.4-3-0.9-4.3-1.8c-0.8-0.5-1.5-1.1-2.1-1.8c0,0,0-0.1,0-0.1
		c0-0.7,0.1-1.4,0.2-2.1c0.1-0.7,0.2-1.4,0.3-2.1c0.4-2.2,0.9-4.4,1.7-6.5c0.5-1.2,1-2.4,1.7-3.6c0.1-0.2,0.3-0.3,0.4-0.5
		c1.3-0.9,2.8-1.6,4.4-2.1c0.6-0.2,1.3-0.3,1.9-0.4c0.1,0,0.1,0,0.1,0.1c0.1,0.2,0.2,0.3,0.2,0.5c0,0.1,0,0.1,0,0.1
		c-0.8,0.2-1.6,0.4-2.3,0.7c-1.2,0.5-2.2,1.2-3.2,2c-0.2,0.2-0.4,0.3-0.5,0.5c0,0,0,0,0,0.1c0,0,0.1,0,0.1,0
		c0.9-0.5,1.9-0.9,2.9-1.3c1.1-0.4,2.3-0.8,3.5-1c1.4-0.2,2.8-0.3,4.2-0.3c1.9,0.1,3.8,0.4,5.6,1c1.2,0.4,2.3,1,3.4,1.5
		c0,0,0.1,0,0.1,0c0,0,0,0,0,0c0,0,0,0,0,0c-0.3-0.3-0.6-0.6-1-0.8c-1.2-0.9-2.5-1.6-3.9-2c-0.4-0.1-0.9-0.3-1.3-0.4
		c-0.1,0-0.1,0,0-0.1c0.1-0.2,0.2-0.3,0.2-0.5c0-0.1,0.1-0.1,0.2-0.1c0.5,0.1,1,0.1,1.5,0.3c1.8,0.5,3.4,1.3,4.9,2.3
		c0.1,0,0.1,0.1,0.2,0.2c0.5,0.8,0.9,1.7,1.3,2.6c0.6,1.3,1,2.7,1.4,4.1c0.3,1.3,0.6,2.7,0.8,4c0.2,1,0.3,2,0.3,3.1
		c0,0.2,0,0.5,0,0.7c0,0.1,0,0.1-0.1,0.2C33.4,38,32,39,30.5,39.6c-1,0.4-2,0.7-3.1,0.9c-0.4,0.1-0.9,0.1-1.3,0.1
		c-0.1,0-0.1,0-0.1-0.1c-0.3-0.4-0.7-0.9-1-1.3c-0.1-0.1,0-0.1,0-0.1c1.2-0.4,2.4-1,3.5-1.8c0.8-0.6,1.5-1.2,2.1-1.9c0,0,0,0,0,0
		c0,0,0,0,0,0l0,0c0,0,0,0,0,0c0,0,0,0,0,0c0,0,0,0,0,0c-0.3,0.2-0.5,0.4-0.8,0.5c-1.2,0.8-2.5,1.4-3.8,1.8
		c-0.9,0.3-1.9,0.5-2.8,0.6c-1.4,0.2-2.8,0.3-4.2,0.2c-1.9-0.1-3.7-0.4-5.4-1c-1.4-0.5-2.7-1.2-3.9-2.1C9.5,35.5,9.5,35.5,9.4,35.4
		C9.4,35.4,9.4,35.4,9.4,35.4C9.4,35.4,9.4,35.4,9.4,35.4C9.4,35.4,9.3,35.4,9.4,35.4C9.3,35.4,9.3,35.4,9.4,35.4
		C9.3,35.4,9.3,35.4,9.4,35.4C9.3,35.4,9.4,35.4,9.4,35.4C9.4,35.4,9.4,35.4,9.4,35.4L9.4,35.4z M13.3,31.3c0,0.2,0,0.3,0,0.4
		c0.1,0.7,0.4,1.3,0.9,1.8c0.9,0.7,2.1,0.7,2.9-0.1c0.4-0.4,0.7-1,0.8-1.6c0.1-0.9-0.1-1.8-0.8-2.5c-0.8-0.9-2.2-0.8-3,0
		C13.5,29.9,13.3,30.5,13.3,31.3L13.3,31.3z M26.6,31.4c0-0.8-0.2-1.4-0.6-1.9c-0.4-0.5-1-0.8-1.7-0.8c-0.7,0-1.2,0.3-1.7,0.8
		c-0.4,0.4-0.6,0.9-0.6,1.4c-0.1,1,0.2,1.9,0.9,2.6c0.8,0.7,2.1,0.7,2.9-0.1C26.4,32.8,26.6,32.1,26.6,31.4L26.6,31.4z M10,23.2
		C10,23.2,10,23.2,10,23.2C10,23.2,10,23.2,10,23.2C10,23.3,10,23.3,10,23.2C10,23.3,10,23.3,10,23.2L10,23.2z"/>
</g>
</svg>
