<?xml version="1.0" encoding="UTF-8"?>
<svg id="Layer_1" data-name="Layer 1" xmlns="http://www.w3.org/2000/svg" xmlns:xlink="http://www.w3.org/1999/xlink" viewBox="0 0 750.67 545.88">
  <defs>
    <style>
      .cls-1 {
        fill: url(#Degradado_sin_nombre_18);
      }
    </style>
    <linearGradient id="Degradado_sin_nombre_18" data-name="Degradado sin nombre 18" x1="375.34" y1="-141" x2="375.34" y2="739.49" gradientUnits="userSpaceOnUse">
      <stop offset="0" stop-color="#00fced"/>
      <stop offset=".13" stop-color="#00f1ed"/>
      <stop offset=".35" stop-color="#00d4ed"/>
      <stop offset=".64" stop-color="#00a6ed"/>
      <stop offset=".98" stop-color="#0066ed"/>
      <stop offset="1" stop-color="#0063ed"/>
    </linearGradient>
  </defs>
  <path class="cls-1" d="M105.14,412.48c14.87,17.03,31.49,32.18,49.52,45.78,28.24,21.29,59.16,37.62,92.46,49.43,2.33,.83,2.36,1.39,.94,3.25-8.32,10.92-16.55,21.91-24.71,32.95-1.17,1.58-2.34,2.06-4.24,1.97-18.88-.85-37.47-3.78-55.85-8.04-39.02-9.02-75.59-23.86-108.93-46.28-19.78-13.3-37.59-28.86-53.37-46.74-.91-1.03-1.03-2.03-.95-3.25,1.16-17.53,2.63-35.03,4.51-52.51,1.98-18.4,4.4-36.73,7.39-54.99,9.31-56.94,23-112.76,43.14-166.9,11.8-31.72,25.37-62.63,42.62-91.84,2.92-4.95,6.53-8.9,11.26-12.21,34.31-23.97,71.49-41.88,111.73-53.37C237,5.09,253.63,1.84,270.53,.04c1.76-.19,2.74,.19,3.53,1.93,1.89,4.18,3.99,8.29,6.15,12.34,.9,1.67,.97,2.26-1.21,2.77-20.36,4.7-40.24,10.91-59.5,19.05-29.98,12.68-57.17,29.89-82.18,50.64-4.73,3.92-9.33,7.98-13.98,11.99-.5,.43-1.17,.74-1.25,1.59,1.14,.34,1.91-.49,2.76-.92,23.92-12.12,47.99-23.95,73.01-33.68,29.05-11.3,58.9-19.66,89.67-24.81,35.98-6.03,72.22-7.74,108.62-6.57,48.77,1.56,96.39,9.66,142.47,26.09,30.14,10.74,58.89,24.58,87.34,39.08,.83,.42,1.69,.81,2.54,1.21,.27,.11,.57,.45,.8,0,.03-.06-.29-.29-.45-.45-7.95-7.62-16.52-14.5-25.08-21.4-29.55-23.81-62.79-40.65-98.8-52.27-11.1-3.58-22.32-6.75-33.63-9.59-1.65-.42-1.86-.85-1.09-2.31,2.1-3.99,4.23-7.98,6.02-12.12,1.01-2.34,2.37-2.77,4.7-2.53,13.24,1.38,26.33,3.55,39.25,6.82,45.75,11.56,87.25,32.09,125.62,59.29,1.77,1.26,3.15,2.78,4.3,4.62,13.09,20.92,23.72,43.11,33.34,65.77,14.59,34.37,26.38,69.71,35.88,105.81,8.94,33.97,15.91,68.33,21.14,103.07,3.92,26.07,6.79,52.24,8.95,78.5,.48,5.78,.74,11.58,1.22,17.36,.14,1.67-.37,2.85-1.47,4.08-29.2,32.93-64.56,57.16-104.96,74.21-25.37,10.71-51.7,18.13-78.87,22.6-11.36,1.87-22.78,3.27-34.31,3.69-1.51,.06-2.47-.32-3.41-1.57-8.39-11.29-16.81-22.57-25.35-33.75-1.44-1.89-.64-2.16,1-2.74,31.83-11.3,61.52-26.69,88.79-46.64,19.55-14.3,37.46-30.42,53.42-48.67,.23-.28,.45-.56,.68-.83,.24-.07,.49-.15,.74-.22h0c-.19-.07-.39-.22-.57-.2-.45,.05-.03,.33-.09,.49-.63-.69-.88-.03-1.21,.33-6.72,4.65-13.36,9.42-20.19,13.91-30.4,20.01-62.96,35.53-97.64,46.59-23.49,7.49-47.46,12.87-71.86,16.46-35.74,5.26-71.64,6.62-107.68,5.01-47.34-2.11-93.62-10.13-138.31-26.2-35.96-12.94-69.36-30.78-100.22-53.34-1.16-.85-2.38-1.63-3.57-2.44-.34-.37-.59-1.05-1.22-.32-.05-.17,.39-.44-.07-.5-.18-.02-.38,.13-.58,.21,.03-.05,.06-.1,.09-.14-.03,.04-.06,.09-.1,.13,.24,.08,.48,.16,.72,.25,.23,.27,.46,.53,.69,.8Zm99.55-106.38c.16,3.99,.19,7.31,.64,10.62,2.44,17.98,9.87,33.33,23.78,45.28,21.99,18.89,54.36,17.3,74.5-3.52,11.04-11.42,17.64-24.96,19.65-40.65,3.08-24.05-3.02-45.3-20.25-62.79-21.52-21.85-56.57-21.46-77.88,.62-13.79,14.28-20.03,31.51-20.43,50.44Zm341.25,3.59c-.01-20.31-5.37-36.19-16.48-49.65-11.09-13.44-25.39-21.13-43-21.2-17.61-.07-31.89,7.58-43.16,20.87-9.05,10.67-14.38,23.11-15.97,36.98-2.95,25.67,3.92,48.02,23.76,65.34,21.64,18.89,53.97,17.27,74.1-3.27,14.1-14.39,20.45-31.83,20.76-49.07ZM121.82,100.55c-.07-.07-.12-.13-.18-.18-.06,.11-.13,.22-.16,.34,0,.04,.1,.11,.16,.17,.06-.11,.12-.22,.18-.32Z"/>
</svg>