<?xml version="1.0" standalone="no"?>
<!DOCTYPE svg PUBLIC "-//W3C//DTD SVG 20010904//EN"
 "http://www.w3.org/TR/2001/REC-SVG-20010904/DTD/svg10.dtd">
<svg version="1.0" xmlns="http://www.w3.org/2000/svg"
 width="512.000000pt" height="512.000000pt" viewBox="0 0 512.000000 512.000000"
 preserveAspectRatio="xMidYMid meet">

<g transform="translate(0.000000,512.000000) scale(0.100000,-0.100000)"
fill="#000000" stroke="none">
<path d="M960 3590 c-332 -71 -604 -288 -746 -594 -29 -64 -57 -152 -78 -248
-4 -19 -17 -32 -39 -42 -126 -52 -126 -240 0 -292 22 -10 35 -23 39 -42 49
-223 131 -384 270 -531 203 -216 471 -331 769 -331 396 0 757 225 938 585 37
76 80 203 92 275 15 88 107 194 211 242 71 33 217 33 288 0 104 -48 196 -154
211 -242 19 -119 87 -283 164 -400 46 -70 159 -190 234 -247 311 -240 755
-281 1107 -103 294 148 488 406 564 752 4 19 17 32 39 42 126 52 126 240 0
292 -22 10 -35 23 -39 42 -21 96 -49 184 -78 248 -149 322 -448 548 -798 604
-109 18 -310 8 -418 -20 -96 -25 -241 -90 -327 -147 -83 -55 -213 -182 -271
-266 -57 -82 -112 -189 -136 -263 l-17 -51 -62 33 c-192 102 -442 102 -634 0
l-62 -33 -17 51 c-77 236 -269 460 -498 582 -216 115 -477 153 -706 104z m415
-331 c246 -76 419 -250 497 -499 33 -108 33 -292 0 -400 -80 -252 -251 -423
-502 -502 -63 -19 -95 -23 -205 -22 -113 1 -141 4 -210 27 -243 81 -430 279
-491 519 -25 98 -25 258 0 356 69 273 304 491 584 542 78 15 248 4 327 -21z
m2790 -3 c241 -77 430 -277 491 -518 25 -98 25 -258 0 -356 -61 -240 -248
-438 -491 -519 -69 -23 -97 -26 -210 -27 -110 -1 -142 3 -205 22 -251 79 -422
250 -502 502 -33 108 -33 292 0 400 87 276 302 470 580 520 85 16 249 4 337
-24z"/>
</g>
</svg>
