<svg id="Layer_1" data-name="Layer 1" xmlns="http://www.w3.org/2000/svg" viewBox="0 0 31.7 26.15">
  <defs>
    <style>
      .cls-1 {
        fill: #fff;
      }

      .cls-2 {
        fill: #c1daea;
      }

      .cls-3 {
        fill: #9cc6d9;
      }
    </style>
  </defs>
  <path class="cls-2" d="M7.73,14.9l3.48,9.63s.44,.9,.9,.9,7.4-7.21,7.4-7.21L27.22,3.34,7.85,12.41l-.12,2.49Z"/>
  <path class="cls-3" d="M12.35,17.37l-.67,7.1s-.28,2.18,1.9,0,4.26-3.85,4.26-3.85l-5.49-3.25h0Z"/>
  <path class="cls-1" d="M7.79,15.24L.63,12.91s-.85-.35-.58-1.13c.06-.16,.17-.3,.51-.54C2.15,10.13,29.93,.15,29.93,.15c0,0,.78-.26,1.25-.09,.21,.08,.35,.17,.46,.5,.04,.12,.07,.38,.06,.63,0,.18-.02,.35-.04,.62-.17,2.73-5.23,23.1-5.23,23.1,0,0-.3,1.19-1.39,1.23-.4,.01-.88-.07-1.45-.56-2.13-1.83-9.49-6.78-11.12-7.87-.09-.06-.12-.14-.13-.22-.02-.11,.1-.26,.1-.26,0,0,12.82-11.39,13.16-12.59,.03-.09-.07-.14-.21-.1-.85,.31-15.61,9.63-17.24,10.66-.1,.06-.36,.02-.36,.02h0Z"/>
</svg>