<?xml version="1.0" encoding="utf-8"?>
<!-- Generator: Adobe Illustrator 27.0.0, SVG Export Plug-In . SVG Version: 6.00 Build 0)  -->
<svg version="1.1" id="Layer_1" xmlns="http://www.w3.org/2000/svg" xmlns:xlink="http://www.w3.org/1999/xlink" x="0px" y="0px"
	 viewBox="0 0 2500 624" style="enable-background:new 0 0 2500 624;" xml:space="preserve">
<style type="text/css">
	.st0{fill-rule:evenodd;clip-rule:evenodd;fill:#555559;}
</style>
<path class="st0" d="M9.8,48.3c62.3,76.4,130.8,172.4,141.8,187.9c0.6,0.8,1,1.4,1.3,1.8c5.9,8.2,10.8,14.4,14.5,19
	c8.2,10.3,10.6,13.4,5.7,16.2c-4,2.3-8,3-12.1,3c-4.6,0-9.8-2.2-13.6-5.9c-2.7-2.6-20.9-29.3-45.8-68.3c-19-29.8-34.9-54.5-35.4-55
	c-1-1-1-0.9,33.4,61.3c21.6,39.1,36.4,67.9,36.4,69.8c0,3.8-1,5.7-5.6,10.9c-7.6,8.6-11.1,18.3-13.5,38.3
	c-2.8,22.5-10.5,38.3-32.1,65.5c-12.6,15.9-14.7,18.8-17.9,25.2c-4,8.1-5.1,12.6-5.6,22.8c-0.5,10.8,0.4,17.7,3.7,28
	c2.9,9,5.8,15,13.4,26.9c6.6,10.3,10.4,17.9,10.4,20.9c0,2.4,0.4,2.4,10.6,0.1c24.4-5.6,44.2-15.3,55.3-27.3
	c6.9-7.4,8.5-11.5,8.6-21.7c0-6.6-0.2-8-2-11.9c-2.9-6.2-8.2-11.4-19.8-19.4c-15.2-10.5-21.7-19-23.5-30.6
	c-1.5-9.5,0.2-16.3,8.7-34.1c8.7-18.5,10.9-26.3,12.3-44.9c0.9-12,2.2-16.8,5.7-20.6c3.6-4,6.8-5.3,15.6-6.5
	c14.4-2,23.5-5.7,31.1-12.7c6.5-6.1,9.3-11.9,9.7-20.8l0.3-6.7l-3.6-4.3C184.6,239.8,1,36.1,0.2,36.1C0,36.1,4.3,41.6,9.8,48.3
	L9.8,48.3z M96.4,453.1c3-5.3,1.4-12.2-3.6-15.6c-4.7-3.2-12.1-1.7-12.1,2.5c0,1.3,0.7,2.2,2.2,3c2.6,1.4,2.8,2.9,0.8,6
	c-2.1,3.2-1.9,6,0.5,7.8C88.1,459.9,93.6,458.3,96.4,453.1L96.4,453.1z M186.3,161.7c-5.9-0.9-6.1-1-3.4-1.5
	c5.3-0.8,17.9,0.3,26.5,2.4c20.2,4.9,38.6,17.3,58.2,39.3l5.2,5.9l7.5-1.2c31.4-5.1,63.4-1,90.1,11.4c7.4,3.4,18.9,10.3,20.4,12
	c0.5,0.6,1.3,4.2,1.9,8c2,13.3,1,23.5-3,31.1c-2.2,4.1-2.3,5.5-0.8,9c1.2,2.8,4.5,4.9,7.7,4.9c6.6,0,13.8-10.9,17.1-25.9l1.3-6
	l2.6,3c14.3,16.4,25.5,38.7,27.5,54.6l0.5,4.1l-2.4-3.8c-4.1-6.5-8.3-10.9-13.6-14.4c-9.6-6.4-19.7-8.6-46.6-10
	c-24.3-1.3-38-3.4-51.6-7.9c-23.2-7.6-34.8-17.8-62.4-54.3c-12.2-16.2-19.8-25.2-27.3-32.4C224.6,173.6,207.8,165,186.3,161.7
	L186.3,161.7z M396.3,197.8c0.6-10.9,2.1-18,5-24.5c1.2-2.6,2.2-4.7,2.4-4.7c0.2,0-0.3,1.9-1.1,4.2c-2.1,6.3-2.5,15-1,25.1
	c1.9,12.8,2.9,14.7,16.3,28.5c6.3,6.5,13.6,14.7,16.3,18.2l4.8,6.4l-4.8-4.6c-5.9-5.6-19.5-16.5-22.4-18c-2-1-2.3-1-3.5,0.2
	c-1.1,1.1-1.4,2.9-1.5,11c-0.2,12.7-2,20.9-6.1,29c-2.2,4.4-2.6,3.5-0.6-1.5c1.5-3.7,1.7-5.4,1.7-17.6c0-24.7-2.9-30.6-20-40.8
	c-4.3-2.6-11.4-6.3-15.8-8.3c-4.4-2-7.8-3.7-7.7-3.8c0.5-0.5,17.1,4.4,23.8,7c9.9,3.9,11.6,4.4,12.8,3.9
	C395.5,207.2,395.9,204.8,396.3,197.8L396.3,197.8z M180,178.9c-1.6,19.1,5.8,44.6,17.8,61.2c9.3,12.9,23.7,22.9,34.3,23.9
	c7,0.6,9-1.6,5.9-6.2c-4.4-6.4-9.7-16.4-11.2-20.6c-0.9-2.6-2.8-10.4-4.3-17.3c-5-23.5-9.9-32.7-21.2-39.6c-4.1-2.5-13-5.9-18.1-6.8
	l-2.7-0.5L180,178.9z M381.8,364c-55.9-22.7-75.6-42.5-75.6-75.8c0-4.9,0.2-8.9,0.4-8.9c0.2,0,2.4,1.6,4.8,3.6
	c11.3,9.2,24,13.1,59.2,18.3c20.7,3.1,32.3,5.5,43.1,9.1c34.1,11.4,55.3,34.6,60.3,66.3c1.5,9.2,0.6,26.4-1.8,35.5
	c-1.9,7.2-7.6,20.1-9.1,20.6c-0.4,0.1-0.8-1.5-0.9-3.7c-0.6-11.9-6.5-23.4-16.5-32.1C434.3,387,419.1,379.1,381.8,364L381.8,364z
	 M339.8,361.5c0.8,2.4,2,7.7,2.7,12c4.5,26.9-9.5,48.7-36.7,57.1c-2.9,0.9-14.2,3.1-25.2,5c-22.3,3.7-32.2,6.4-42.2,11.2
	c-7.1,3.4-15.6,8.6-15.1,9.1c0.2,0.2,1.8-0.2,3.6-0.9c12.6-4.5,26.6-6.8,47.9-7.9c8.4-0.4,18-1.1,21.3-1.6
	c19-2.4,32.1-8.2,42.3-18.7c5.7-5.8,9.1-11.3,11.8-19c1.7-4.9,2-6.7,2-15.3c0-8.8-0.2-10.4-2.1-15.8c-2.5-7.1-5.4-12.4-9-16.6
	l-2.7-3L339.8,361.5z M368.2,419.4c-7.4-16.1-9.1-31.7-5.1-46.2c0.4-1.6,1.1-2.8,1.6-2.8c0.4,0,2.2,1,3.9,2.1
	c3.4,2.3,10.3,6.3,28.6,16.3c22.8,12.6,35.9,22.3,44.7,33.4c7.8,9.7,12.6,20.8,14.9,34.4c1.3,7.7,0.5,26.1-1.4,33.8
	c-6.1,24.3-20.4,43.5-40.8,54.6c-3,1.6-5.7,3-5.9,3c-0.3,0,0.8-2.8,2.4-6.2c6.8-14.5,7.6-28.5,2.5-44.2c-3.2-9.6-9.6-21.3-22.7-41
	C375.6,433.6,371.9,427.5,368.2,419.4L368.2,419.4z M228.2,472.4c-23.5,3.9-49.4,16.4-70.1,34.1l-6.2,5.3l5.4,0.9
	c28.3,4.5,36,8.4,55.6,28.9c11.3,11.8,15.1,14.4,24.5,16.8c13.8,3.6,27.4-3,32-15.4c2.1-5.5,1.8-14.7-0.6-19.4
	c-5.7-11-22.2-14.5-30.2-6.5c-6.7,6.7-4.7,16.8,3.6,18.5c1.9,0.4,1.8,0.3-0.5-0.7c-3.6-1.7-5.2-4-5.2-7.6c0-8.6,9.7-13.4,18.7-9.3
	c6.6,3,9.2,7,9.2,13.9c0,10.6-9,18.7-19.4,17.3c-5.6-0.7-12.4-4.3-16.1-8.5c-9.2-10.5-5.6-27.1,7.2-33.5c9.8-4.8,22.8-3.6,32.9,3
	c11.6,7.7,16.5,14.7,26.5,37.6c3.2,7.5,7.4,15.9,9.3,18.7c9.5,14.3,20.8,21.3,34.4,21.3c7.5,0,13.2-1.4,20.3-5
	c5.3-2.7,12.8-7.7,12.2-8.3c-0.2-0.2-2.3,0.5-4.9,1.5c-14.9,5.9-30,5.5-38.8-1c-5.5-4.1-10-12.2-12.3-22.4
	c-0.4-1.8-1.7-9.6-2.9-17.3c-3.1-19.7-6-28.5-12.8-38.7c-7-10.4-20.5-19.1-35.5-23C255.2,471.3,238.3,470.7,228.2,472.4L228.2,472.4
	z M195.2,320.3c2-7.6,8.6-14.8,15.3-16.9c4.3-1.3,13.2-0.5,17.3,1.7c8.1,4.2,14,13.6,12.7,20.4c-1.6,8.3-14.9,15-30.3,15.1
	c-7.9,0.1-10.8-1-13.8-5.1C194.7,333,194,324.9,195.2,320.3L195.2,320.3z M225.9,308c4,2.5,5.1,6.2,2.7,9.6
	c-1.6,2.3-6.7,4.6-10.4,4.6c-5.6,0-11.6-4-11.6-7.6C206.6,307.2,218.2,303.3,225.9,308L225.9,308z M1431.1,329
	c-12.5-41.7,8.1-76.3,52.3-87.5c12.7-3.2,70-1.8,79.8,2c3.6,1.4,5.2,6.7,5.2,17.5c0,8.6,1,18.9,2.1,23.1c1.7,6.3,0.7,7.5-5.9,7.4
	c-6-0.1-9.6-3.6-14.7-14.2c-8.1-17-17.9-22.4-40.7-22.4c-29.1-0.1-50.4,19.5-46.9,43.2c2.3,15.4,17.7,30.6,52.2,51.4
	c32.9,19.8,52.1,36.1,59.7,50.7c20.4,39.1,3,80.9-42.6,101.9c-23.4,10.8-62.6,11.9-90.1,2.6l-17.6-6v-28.2c0-25.5,0.6-28.2,6.4-28.2
	c4.9,0,7,3.2,8.7,13.3c4.3,25.1,23.3,40.3,50.4,40.3c26.6,0,45.2-14.5,52.3-40.8c3-11.2,2.5-15.4-3.5-27.7
	c-7.2-14.8-19.6-24.7-61.7-49C1453,364.9,1436.5,346.9,1431.1,329L1431.1,329z M605.1,258.2c-5.7,0-8-1.9-8-6.7
	c0-6.4,2.2-6.7,47.3-6.7c41.8,0,47.2,0.6,46.2,5.4c-0.6,3-6.4,7.1-12.8,9.2l-11.8,3.8l-1,85.4c-0.7,57,0.3,89.8,2.8,98.8
	c7.6,26.6,30.9,41.9,63.7,41.9c22.9,0,36.2-5.3,53-21.2c18-17.1,20.9-33.3,20.9-117.5c-0.1-83.1-1.5-90-19.4-91.7
	c-8.1-0.8-10.8-2.7-10.8-7.5c0-6.1,2.7-6.5,40.3-6.5c38.1,0,40.3,0.4,40.3,6.7c0,4.1-2.3,6.7-5.9,6.7c-15.6,0.1-15.8,1.6-17.9,92.7
	c-2.2,94.6-4.2,105.8-23.4,129c-5.5,6.7-18.7,16.4-29.3,21.6c-17.3,8.4-22.7,9.4-52.9,9.4c-27.8-0.1-36.5-1.4-50.4-7.7
	c-20.3-9.2-33.4-21.2-43.2-39.1c-6.8-12.5-7.4-19.3-8.9-104.1C622.2,262.9,621.4,258.2,605.1,258.2L605.1,258.2z M919.6,258.2
	c-7.7,0-9.9-1.5-9.9-6.7c0-6.3,2.1-6.7,34.4-6.4l34.4,0.3l16.5,19c9.1,10.4,38.6,43.1,65.6,72.6c27,29.5,58.1,63.8,69,76.2
	c10.9,12.4,21.2,22.6,22.8,22.6c1.7,0,2.5-35.1,1.9-80.7l-1.1-80.7l-9.4-8.1c-5.2-4.4-13.1-8.1-17.6-8.1c-6,0-8.2-1.8-8.2-6.8
	c0-6.5,1.7-6.8,46.2-5.9c37.8,0.8,46.2,1.8,46.2,5.8c0,2.8-4.7,5.8-11.2,7.2c-6.2,1.3-13,4-15.1,6.2c-2.8,2.7-4.2,38.3-4.9,122.6
	l-1,118.7h-9.7c-8.4,0-18.4-9.4-71.7-67.8c-34.1-37.3-73.9-81.6-88.4-98.5c-14.5-16.9-27.6-30.8-29-31c-3.9-0.4-3,150.4,1,164.7
	c3.1,11.2,5.3,13.1,18.5,16.6c10.6,2.8,14.9,5.7,14.9,10c0,5.5-4.1,6-47,6c-43.8,0-47-0.4-47-6.3c0-4.3,3.2-6.9,9.9-8.3
	c20.5-4.1,21.9-10.6,23-109.8c0.6-55.6-0.3-94.4-2.5-102.6C946.4,264.8,936.7,258.2,919.6,258.2L919.6,258.2z M1272,258.2
	c-7.2,0-9.4-1.6-9.4-6.7c0-6.4,2.2-6.7,50.4-6.7c48.2,0,50.4,0.3,50.4,6.7c0,4.9-2.2,6.7-8.4,6.7c-4.6,0-11.5,3.1-15.3,6.8
	c-6.7,6.6-6.8,9.9-5.9,112.5c0.9,100.1,1.3,105.9,7.5,110.4c3.6,2.6,10,4.7,14.3,4.7c5.5,0,7.8,1.9,7.8,6.7c0,6.4-2.2,6.7-50.4,6.7
	c-47,0-50.4-0.4-50.4-6.3c0-4.7,3.3-6.8,13.3-8.4c19.9-3.2,20.9-9.7,19.7-125.4c-1-92.7-1.4-98.5-7.6-103
	C1284.4,260.3,1277.2,258.2,1272,258.2L1272,258.2z M1623.6,258.2c-4.6,0-8.1-2.5-9.2-6.7c-1.7-6.5-0.1-6.7,48.3-6.7
	c47.9,0,50.1,0.3,50.1,6.7c0,5.1-2.2,6.7-9.7,6.7c-21.2,0-20.7,3.8,11.3,91.4c16.3,44.6,32.1,86.9,35.2,94.1l5.5,13.1l25.7-68.3
	c30.2-80.4,34.1-95.3,29-109.9c-3.6-10.2-17.5-20.3-28-20.3c-3,0-5.2-2.9-5.2-6.7c0-6.4,2.2-6.7,52.1-6.7c49.8,0,52.1,0.3,52.1,6.7
	c0,4.8-2.2,6.7-7.8,6.7c-14.1,0-20.4,7.5-18.3,22.1c2.1,15,59.9,176.4,62.3,174c3.9-3.9,68-177.7,68-184.4c0-8.1-5.7-11.6-18.8-11.6
	c-5.9,0-8.1-1.8-8.1-6.7c0-6.3,2.2-6.7,40.3-6.7c34.2,0,40.3,0.8,40.3,5.2c0,2.9-4.2,6.7-9.3,8.4c-11.5,4-14.4,8.6-28.9,45.6
	c-6.3,16.2-26.2,67.1-44.1,113c-11.5,29.3-22.9,58.6-34.3,87.9c-0.9,2.4-6.5,4.4-12.4,4.4h-10.6l-24.1-62.8
	c-11.7-30.3-23.3-60.6-34.9-90.9c-10.1-26.5-10.9-27.7-14.7-20.1c-2.2,4.4-18.2,45.4-35.4,91.1l-31.4,83l-11.7-1l-11.7-1
	l-44.7-116.9c-25-65.3-48-120.4-52.1-124.7C1634.3,261.7,1627.7,258.2,1623.6,258.2L1623.6,258.2z M2295.6,259.6
	c-0.6-1.3-0.6-5.8-0.6-5.8s-0.1-1.6,0.6-2.5c0.7-0.9,0.9-0.9,3.4-1.1l0,0c9.1-0.9,27.3-2.3,42.5-3c1.4-0.1,2.9-0.1,4.6-0.2h0.1
	c16.7-0.8,46.6-1.8,67.2-0.7c39.5,2,67.5,21,77.1,52.6c9.6,31.5,4.5,61.1-8.5,79.9c-13,18.8-35,35-71.4,34
	c-30.1-0.9-38.1-6.5-44.6-11c-1.4-1-2.6-1.9-4.1-2.6v40.2c0.3,27.4,0.5,40.6,2.7,45.4c2.9,6.6,9.3,10.6,21.9,13.7
	c0,0,5.7,1.3,7.2,2.8c1.5,1.4,1.5,4.6,1.5,4.6s0.3,3-0.9,4.5c-1.2,1.5-3.5,1.2-3.5,1.2l-55.8-0.4l-33.6-0.1c0,0-3.5,0.7-4.9-0.7
	c-1.3-1.4-1.2-4.4-1.2-4.4s0.3-3.2,1.8-4.6c1.5-1.4,7.3-3,7.3-3c13-3.6,18.6-7.5,21.5-14.8c2.4-5.9,2.4-16.7,2.4-105.2
	c0-84-0.1-99.6-2.1-104.1c-2.8-6.7-10-8.4-20.1-11h0c-2-0.5-4.1-1-6.4-1.6C2299.7,261.3,2296.1,260.9,2295.6,259.6L2295.6,259.6z
	 M2458,328.1c0,13.8-0.2,35.3-14.9,49.1c-14.7,13.8-43.5,17.5-63.1,13.7c-6.2-1.2-9.7-3.1-12.4-4.5l-0.3-0.1l-5-2.6l-0.3-48.4
	c-0.2-30.3,0.1-50.1,0.9-52.9c0.7-16,24.2-18,35.7-17.4C2447.8,265,2456.5,306.5,2458,328.1L2458,328.1z M2140.8,246.7
	c0,0-2.4,0.9-6.1,2.3l-13.2,6.8l-9.5,23.7c-5.2,13-14.7,36.9-21.2,53.1c-9.2,23-18.4,46-27.6,69c-2.4,5.9-9.6,24-16.1,40.2
	c-6.4,16.2-12.9,31.6-14.3,34.2c-0.2,0.4-0.5,0.9-0.8,1.4c-3.6,6.8-9.9,18.6-20.9,20.3c0,0-6.1,0.6-8.3,2.8c-2.3,2.2-2,4-2,4v2.8
	c0,0,0.2,1.4,1.5,2c1.3,0.7,3,0.7,3,0.7l40.5-0.5h41.8c0,0,3,0.3,4.1-0.6c1.1-0.9,1.5-2.3,1.5-2.3v-3c0,0-0.6-3.2-2.2-4.5
	c-1.7-1.2-7.9-2.1-7.9-2.1c-16.7-2.2-19.6-14.9-17.6-26.3c1-5.6,7.7-26.3,15.3-47.1l2.6-7.2l43.8-0.3c24.1-0.2,44.9-0.1,46.3,0.3
	c1.9,0.5,4.6,5.9,12.4,25.2c11.8,29.2,12.8,32.7,10.2,38.2c-0.2,0.3-0.3,0.7-0.5,1.1c-2.5,5.3-7.2,15.5-19.3,16.6c0,0-6.4,0.2-8,2.1
	c-1.6,1.9-1.2,4.1-1.2,4.1v2.9c0,0,0.4,1.7,1.2,2.4c0.8,0.7,2.2,0.5,2.2,0.5l39.8-0.3l55.9,0c0,0,2.2,0.2,2.8-0.6
	c0.6-0.8,0.7-1.8,0.7-1.8v-3.9c0,0-0.2-2.1-1.3-3.2c-1.1-1.1-8.3-2.3-8.3-2.3c-9.3-1.5-13.9-9.1-17.3-14.8c-0.9-1.5-1.7-2.8-2.5-3.8
	c-1.6-2.2-7.3-14.1-11.7-25.5c-4.5-11.4-14.5-37.3-22.3-57.4c-7.8-20.1-18.8-48.2-24.3-62.4c-8.9-22.8-17.7-45.6-26.6-68.4l0,0
	c-4.9-12.6-6.9-17.7-7.4-18.4C2146.3,244.4,2140.8,246.7,2140.8,246.7L2140.8,246.7z M2138.2,323.6c-2.3-5.7-4.6-11.4-6.9-17.1
	c-3.7-9.3-5.1-11.4-6.2-9.5c-0.3,0.6-2.7,6.9-5.2,14.1c-16.2,46.7-23.6,67.7-25,71.7c-0.9,2.5-1.7,5.1-1.7,5.7
	c0,0.7,13.2,1.2,35.8,1.2c19.7,0,35.8-0.2,35.8-0.5c0-0.3-1.8-4.8-3.9-9.9c-2.1-5.2-7.4-18-11.7-28.6
	C2144.9,340,2140,327.9,2138.2,323.6L2138.2,323.6z"/>
</svg>
